<svg xmlns="http://www.w3.org/2000/svg" viewBox="0 0 160 140" width="160" height="140">
  <defs>
    <!-- Animaci贸n de levitaci贸n -->
    <animateTransform
      id="float"
      attributeName="transform"
      type="translate"
      values="0,0; 0,-8; 0,0"
      dur="3s"
      repeatCount="indefinite"
    />
  </defs>
  
  <!-- Grupo de la cereza izquierda con animaci贸n -->
  <g>
    <animateTransform
      attributeName="transform"
      type="translate"
      values="0,0; 0,-8; 0,0"
      dur="3s"
      repeatCount="indefinite"
    />
    
    <!-- Tallo izquierdo (negro) -->
    <rect x="44" y="40" width="8" height="8" fill="#1e1e2e"/>
    <rect x="44" y="48" width="8" height="8" fill="#1e1e2e"/>
    <rect x="44" y="56" width="8" height="8" fill="#1e1e2e"/>
    <rect x="44" y="64" width="8" height="8" fill="#1e1e2e"/>
    
    <!-- Cereza izquierda (roja) -->
    <rect x="28" y="72" width="8" height="8" fill="#1e1e2e"/>
    <rect x="36" y="64" width="8" height="8" fill="#1e1e2e"/>
    <rect x="44" y="64" width="8" height="8" fill="#1e1e2e"/>
    <rect x="52" y="72" width="8" height="8" fill="#1e1e2e"/>
    <rect x="20" y="80" width="8" height="8" fill="#1e1e2e"/>
    <rect x="52" y="80" width="8" height="8" fill="#1e1e2e"/>
    <rect x="20" y="88" width="8" height="8" fill="#1e1e2e"/>
    <rect x="52" y="88" width="8" height="8" fill="#1e1e2e"/>
    <rect x="20" y="96" width="8" height="8" fill="#1e1e2e"/>
    <rect x="52" y="96" width="8" height="8" fill="#1e1e2e"/>
    <rect x="28" y="104" width="8" height="8" fill="#1e1e2e"/>
    <rect x="44" y="104" width="8" height="8" fill="#1e1e2e"/>
    
    <!-- Relleno rojo -->
    <rect x="28" y="80" width="8" height="8" fill="#f38ba8"/>
    <rect x="36" y="72" width="8" height="8" fill="#f38ba8"/>
    <rect x="36" y="80" width="8" height="8" fill="#eba0ac"/>
    <rect x="36" y="88" width="8" height="8" fill="#eba0ac"/>
    <rect x="36" y="96" width="8" height="8" fill="#f38ba8"/>
    <rect x="44" y="72" width="8" height="8" fill="#f38ba8"/>
    <rect x="44" y="80" width="8" height="8" fill="#eba0ac"/>
    <rect x="44" y="88" width="8" height="8" fill="#eba0ac"/>
    <rect x="44" y="96" width="8" height="8" fill="#f38ba8"/>
    <rect x="28" y="88" width="8" height="8" fill="#eba0ac"/>
    <rect x="28" y="96" width="8" height="8" fill="#f38ba8"/>
    
    <!-- Brillos blancos -->
    <rect x="36" y="80" width="8" height="8" fill="#cdd6f4"/>
    <rect x="44" y="88" width="8" height="8" fill="#cdd6f4"/>
  </g>
  
  <!-- Grupo de la cereza derecha con animaci贸n (ligeramente desfasada) -->
  <g>
    <animateTransform
      attributeName="transform"
      type="translate"
      values="0,2; 0,-6; 0,2"
      dur="3s"
      begin="0.5s"
      repeatCount="indefinite"
    />
    
    <!-- Tallo derecho (negro) -->
    <rect x="108" y="40" width="8" height="8" fill="#1e1e2e"/>
    <rect x="108" y="48" width="8" height="8" fill="#1e1e2e"/>
    <rect x="108" y="56" width="8" height="8" fill="#1e1e2e"/>
    <rect x="108" y="64" width="8" height="8" fill="#1e1e2e"/>
    
    <!-- Cereza derecha (roja) -->
    <rect x="92" y="72" width="8" height="8" fill="#1e1e2e"/>
    <rect x="100" y="64" width="8" height="8" fill="#1e1e2e"/>
    <rect x="108" y="64" width="8" height="8" fill="#1e1e2e"/>
    <rect x="116" y="72" width="8" height="8" fill="#1e1e2e"/>
    <rect x="84" y="80" width="8" height="8" fill="#1e1e2e"/>
    <rect x="116" y="80" width="8" height="8" fill="#1e1e2e"/>
    <rect x="84" y="88" width="8" height="8" fill="#1e1e2e"/>
    <rect x="116" y="88" width="8" height="8" fill="#1e1e2e"/>
    <rect x="84" y="96" width="8" height="8" fill="#1e1e2e"/>
    <rect x="116" y="96" width="8" height="8" fill="#1e1e2e"/>
    <rect x="92" y="104" width="8" height="8" fill="#1e1e2e"/>
    <rect x="108" y="104" width="8" height="8" fill="#1e1e2e"/>
    
    <!-- Relleno rojo -->
    <rect x="92" y="80" width="8" height="8" fill="#f38ba8"/>
    <rect x="100" y="72" width="8" height="8" fill="#f38ba8"/>
    <rect x="100" y="80" width="8" height="8" fill="#eba0ac"/>
    <rect x="100" y="88" width="8" height="8" fill="#eba0ac"/>
    <rect x="100" y="96" width="8" height="8" fill="#f38ba8"/>
    <rect x="108" y="72" width="8" height="8" fill="#f38ba8"/>
    <rect x="108" y="80" width="8" height="8" fill="#eba0ac"/>
    <rect x="108" y="88" width="8" height="8" fill="#eba0ac"/>
    <rect x="108" y="96" width="8" height="8" fill="#f38ba8"/>
    <rect x="92" y="88" width="8" height="8" fill="#eba0ac"/>
    <rect x="92" y="96" width="8" height="8" fill="#f38ba8"/>
    
    <!-- Brillos blancos -->
    <rect x="100" y="80" width="8" height="8" fill="#cdd6f4"/>
    <rect x="108" y="88" width="8" height="8" fill="#cdd6f4"/>
  </g>
  
  <!-- Hojas verdes en el centro -->
  <g>
    <animateTransform
      attributeName="transform"
      type="translate"
      values="0,0; 0,-8; 0,0"
      dur="3s"
      repeatCount="indefinite"
    />
    
    <!-- Hoja izquierda -->
    <rect x="52" y="16" width="8" height="8" fill="#1e1e2e"/>
    <rect x="44" y="24" width="8" height="8" fill="#1e1e2e"/>
    <rect x="52" y="24" width="8" height="8" fill="#1e1e2e"/>
    <rect x="60" y="24" width="8" height="8" fill="#1e1e2e"/>
    <rect x="36" y="32" width="8" height="8" fill="#1e1e2e"/>
    <rect x="44" y="32" width="8" height="8" fill="#1e1e2e"/>
    <rect x="52" y="32" width="8" height="8" fill="#1e1e2e"/>
    <rect x="60" y="32" width="8" height="8" fill="#1e1e2e"/>
    
    <!-- Relleno verde hoja izquierda -->
    <rect x="52" y="24" width="8" height="8" fill="#a6e3a1"/>
    <rect x="44" y="32" width="8" height="8" fill="#a6e3a1"/>
    <rect x="52" y="32" width="8" height="8" fill="#94e2d5"/>
    
    <!-- Hoja derecha -->
    <rect x="100" y="16" width="8" height="8" fill="#1e1e2e"/>
    <rect x="92" y="24" width="8" height="8" fill="#1e1e2e"/>
    <rect x="100" y="24" width="8" height="8" fill="#1e1e2e"/>
    <rect x="108" y="24" width="8" height="8" fill="#1e1e2e"/>
    <rect x="92" y="32" width="8" height="8" fill="#1e1e2e"/>
    <rect x="100" y="32" width="8" height="8" fill="#1e1e2e"/>
    <rect x="108" y="32" width="8" height="8" fill="#1e1e2e"/>
    <rect x="116" y="32" width="8" height="8" fill="#1e1e2e"/>
    
    <!-- Relleno verde hoja derecha -->
    <rect x="100" y="24" width="8" height="8" fill="#a6e3a1"/>
    <rect x="108" y="32" width="8" height="8" fill="#a6e3a1"/>
    <rect x="100" y="32" width="8" height="8" fill="#94e2d5"/>
  </g>
</svg>
