<svg width="200" height="200" viewBox="0 0 200 200" xmlns="http://www.w3.org/2000/svg">
  <defs>
    <style>
      @keyframes float {
        0%, 100% { transform: translateY(0px); }
        50% { transform: translateY(-15px); }
      }
      @keyframes swing {
        0%, 100% { transform: rotate(-5deg); }
        50% { transform: rotate(5deg); }
      }
      .cherry-group {
        animation: float 3s ease-in-out infinite;
        transform-origin: center;
      }
      .stem {
        animation: swing 2s ease-in-out infinite;
        transform-origin: top center;
      }
    </style>
  </defs>
  
  <g class="cherry-group">
    <!-- Stems/Tallos -->
    <g class="stem">
      <!-- Left stem -->
      <rect x="60" y="40" width="10" height="10" fill="#000"/>
      <rect x="50" y="50" width="10" height="10" fill="#000"/>
      <rect x="40" y="60" width="10" height="10" fill="#000"/>
      <rect x="30" y="70" width="10" height="10" fill="#000"/>
      <rect x="30" y="80" width="10" height="10" fill="#000"/>
      
      <!-- Right stem -->
      <rect x="70" y="40" width="10" height="10" fill="#000"/>
      <rect x="80" y="50" width="10" height="10" fill="#000"/>
      <rect x="90" y="60" width="10" height="10" fill="#000"/>
      <rect x="100" y="70" width="10" height="10" fill="#000"/>
      <rect x="110" y="80" width="10" height="10" fill="#000"/>
      <rect x="120" y="90" width="10" height="10" fill="#000"/>
    </g>
    
    <!-- Leaves/Hojas -->
    <!-- Left leaf -->
    <rect x="40" y="30" width="10" height="10" fill="#000"/>
    <rect x="50" y="30" width="10" height="10" fill="#000"/>
    <rect x="30" y="40" width="10" height="10" fill="#000"/>
    <rect x="40" y="40" width="10" height="10" fill="#6ebe87"/>
    <rect x="50" y="40" width="10" height="10" fill="#6ebe87"/>
    <rect x="60" y="40" width="10" height="10" fill="#000"/>
    <rect x="30" y="50" width="10" height="10" fill="#000"/>
    <rect x="40" y="50" width="10" height="10" fill="#52a86f"/>
    <rect x="50" y="50" width="10" height="10" fill="#52a86f"/>
    <rect x="60" y="50" width="10" height="10" fill="#000"/>
    <rect x="40" y="60" width="10" height="10" fill="#000"/>
    <rect x="50" y="60" width="10" height="10" fill="#000"/>
    
    <!-- Right leaf -->
    <rect x="90" y="30" width="10" height="10" fill="#000"/>
    <rect x="100" y="30" width="10" height="10" fill="#000"/>
    <rect x="90" y="40" width="10" height="10" fill="#000"/>
    <rect x="100" y="40" width="10" height="10" fill="#6ebe87"/>
    <rect x="110" y="40" width="10" height="10" fill="#6ebe87"/>
    <rect x="120" y="40" width="10" height="10" fill="#000"/>
    <rect x="90" y="50" width="10" height="10" fill="#000"/>
    <rect x="100" y="50" width="10" height="10" fill="#52a86f"/>
    <rect x="110" y="50" width="10" height="10" fill="#52a86f"/>
    <rect x="120" y="50" width="10" height="10" fill="#000"/>
    <rect x="100" y="60" width="10" height="10" fill="#000"/>
    <rect x="110" y="60" width="10" height="10" fill="#000"/>
    
    <!-- Left Cherry/Cereza izquierda -->
    <!-- Outline -->
    <rect x="20" y="90" width="10" height="10" fill="#000"/>
    <rect x="30" y="90" width="10" height="10" fill="#000"/>
    <rect x="40" y="90" width="10" height="10" fill="#000"/>
    <rect x="50" y="90" width="10" height="10" fill="#000"/>
    <rect x="10" y="100" width="10" height="10" fill="#000"/>
    <rect x="60" y="100" width="10" height="10" fill="#000"/>
    <rect x="10" y="110" width="10" height="10" fill="#000"/>
    <rect x="60" y="110" width="10" height="10" fill="#000"/>
    <rect x="10" y="120" width="10" height="10" fill="#000"/>
    <rect x="60" y="120" width="10" height="10" fill="#000"/>
    <rect x="10" y="130" width="10" height="10" fill="#000"/>
    <rect x="60" y="130" width="10" height="10" fill="#000"/>
    <rect x="20" y="140" width="10" height="10" fill="#000"/>
    <rect x="30" y="140" width="10" height="10" fill="#000"/>
    <rect x="40" y="140" width="10" height="10" fill="#000"/>
    <rect x="50" y="140" width="10" height="10" fill="#000"/>
    
    <!-- Fill light red -->
    <rect x="20" y="100" width="10" height="10" fill="#f38ba8"/>
    <rect x="30" y="100" width="10" height="10" fill="#f38ba8"/>
    <rect x="40" y="100" width="10" height="10" fill="#f38ba8"/>
    <rect x="50" y="100" width="10" height="10" fill="#f38ba8"/>
    <rect x="20" y="110" width="10" height="10" fill="#f38ba8"/>
    <rect x="50" y="110" width="10" height="10" fill="#f38ba8"/>
    <rect x="20" y="120" width="10" height="10" fill="#f38ba8"/>
    <rect x="50" y="120" width="10" height="10" fill="#f38ba8"/>
    
    <!-- Fill dark red -->
    <rect x="30" y="110" width="10" height="10" fill="#d8456d"/>
    <rect x="40" y="110" width="10" height="10" fill="#d8456d"/>
    <rect x="20" y="130" width="10" height="10" fill="#d8456d"/>
    <rect x="30" y="130" width="10" height="10" fill="#d8456d"/>
    <rect x="40" y="130" width="10" height="10" fill="#d8456d"/>
    <rect x="50" y="130" width="10" height="10" fill="#d8456d"/>
    
    <!-- Highlight white -->
    <rect x="30" y="120" width="10" height="10" fill="#fff"/>
    <rect x="40" y="120" width="10" height="10" fill="#fff"/>
    
    <!-- Right Cherry/Cereza derecha -->
    <!-- Outline -->
    <rect x="80" y="110" width="10" height="10" fill="#000"/>
    <rect x="90" y="110" width="10" height="10" fill="#000"/>
    <rect x="100" y="110" width="10" height="10" fill="#000"/>
    <rect x="110" y="110" width="10" height="10" fill="#000"/>
    <rect x="70" y="120" width="10" height="10" fill="#000"/>
    <rect x="120" y="120" width="10" height="10" fill="#000"/>
    <rect x="70" y="130" width="10" height="10" fill="#000"/>
    <rect x="120" y="130" width="10" height="10" fill="#000"/>
    <rect x="70" y="140" width="10" height="10" fill="#000"/>
    <rect x="120" y="140" width="10" height="10" fill="#000"/>
    <rect x="70" y="150" width="10" height="10" fill="#000"/>
    <rect x="120" y="150" width="10" height="10" fill="#000"/>
    <rect x="80" y="160" width="10" height="10" fill="#000"/>
    <rect x="90" y="160" width="10" height="10" fill="#000"/>
    <rect x="100" y="160" width="10" height="10" fill="#000"/>
    <rect x="110" y="160" width="10" height="10" fill="#000"/>
    
    <!-- Fill light red -->
    <rect x="80" y="120" width="10" height="10" fill="#f38ba8"/>
    <rect x="90" y="120" width="10" height="10" fill="#f38ba8"/>
    <rect x="100" y="120" width="10" height="10" fill="#f38ba8"/>
    <rect x="110" y="120" width="10" height="10" fill="#f38ba8"/>
    <rect x="80" y="130" width="10" height="10" fill="#f38ba8"/>
    <rect x="110" y="130" width="10" height="10" fill="#f38ba8"/>
    <rect x="80" y="140" width="10" height="10" fill="#f38ba8"/>
    <rect x="110" y="140" width="10" height="10" fill="#f38ba8"/>
    
    <!-- Fill dark red -->
    <rect x="90" y="130" width="10" height="10" fill="#d8456d"/>
    <rect x="100" y="130" width="10" height="10" fill="#d8456d"/>
    <rect x="80" y="150" width="10" height="10" fill="#d8456d"/>
    <rect x="90" y="150" width="10" height="10" fill="#d8456d"/>
    <rect x="100" y="150" width="10" height="10" fill="#d8456d"/>
    <rect x="110" y="150" width="10" height="10" fill="#d8456d"/>
    
    <!-- Highlight white -->
    <rect x="90" y="140" width="10" height="10" fill="#fff"/>
    <rect x="100" y="140" width="10" height="10" fill="#fff"/>
  </g>
</svg>
